<svg xmlns="http://www.w3.org/2000/svg" width="1440" height="900" viewBox="0 0 1440 900">
  <defs>
    <linearGradient id="bg" x1="0" y1="0" x2="1" y2="1">
      <stop offset="0%" stop-color="#05264F"/>
      <stop offset="45%" stop-color="#087B9E"/>
      <stop offset="100%" stop-color="#0A1942"/>
    </linearGradient>
    <linearGradient id="panelGrad" x1="0" y1="0" x2="1" y2="1">
      <stop offset="0%" stop-color="#0B315F" stop-opacity="0.94"/>
      <stop offset="100%" stop-color="#07132E" stop-opacity="0.94"/>
    </linearGradient>
    <filter id="shadow" x="-20%" y="-20%" width="140%" height="140%">
      <feDropShadow dx="0" dy="10" stdDeviation="8" flood-color="#00152A" flood-opacity="0.55"/>
    </filter>
    <style>
      text { font-family: Inter, Arial, 'Noto Sans Thai', sans-serif; letter-spacing: 0; }
      .tiny { opacity: 0.76; }
    </style>
  </defs>
  <rect width="1440" height="900" fill="url(#bg)"/>
  <g opacity="0.22">
    <path d="M40 670 C170 570, 240 640, 360 500 S580 410, 700 480 S940 620, 1110 380 S1290 280, 1400 330" fill="none" stroke="#7BFFF2" stroke-width="5"/>
    <path d="M10 760 L130 700 L240 735 L360 620 L470 650 L600 540 L735 580 L850 430 L980 465 L1090 350 L1260 390 L1410 230" fill="none" stroke="#B6FF66" stroke-width="4"/>
    <g fill="#FFFFFF">
      <circle cx="1180" cy="90" r="5"/><circle cx="1320" cy="170" r="4"/><circle cx="210" cy="110" r="4"/><circle cx="92" cy="210" r="3"/>
    </g>
  </g>

  <text x="720" y="74" text-anchor="middle" font-size="56" font-weight="950" fill="#FFFFFF" stroke="#001B35" stroke-width="6" paint-order="stroke">FINANCIAL MARKET UPDATE</text>
  <text x="720" y="112" text-anchor="middle" font-size="24" font-weight="800" fill="#A7F3FF">2026-06-01 | Provider: rule_based / fallback</text>

  <g filter="url(#shadow)">
    
    <rect x="70" y="142" width="255" height="118" rx="22" fill="#071B36" stroke="#48E0FF" stroke-width="3"/>
    <text x="92" y="180" font-size="18" font-weight="800" fill="#A7E8FF">Average regular move</text>
    <text x="92" y="228" font-size="38" font-weight="950" fill="#FFFFFF">-1.13%</text>
    
    
    <rect x="350" y="142" width="255" height="118" rx="22" fill="#071B36" stroke="#9BFF6A" stroke-width="3"/>
    <text x="372" y="180" font-size="18" font-weight="800" fill="#A7E8FF">Average extended move</text>
    <text x="372" y="228" font-size="38" font-weight="950" fill="#FFFFFF">-0.19%</text>
    
    
    <rect x="630" y="142" width="255" height="118" rx="22" fill="#071B36" stroke="#FFD84D" stroke-width="3"/>
    <text x="652" y="180" font-size="18" font-weight="800" fill="#A7E8FF">Market tone</text>
    <text x="652" y="228" font-size="38" font-weight="950" fill="#FFFFFF">risk-off / mixed</text>
    
    
    <rect x="910" y="142" width="255" height="118" rx="22" fill="#071B36" stroke="#FF78A6" stroke-width="3"/>
    <text x="932" y="180" font-size="18" font-weight="800" fill="#A7E8FF">Tickers tracked</text>
    <text x="932" y="228" font-size="38" font-weight="950" fill="#FFFFFF">18</text>
    
  </g>

  <g filter="url(#shadow)">
    
    <rect x="70" y="290" width="760" height="300" rx="26" fill="url(#panelGrad)" stroke="#48E0FF" stroke-width="4"/>
    <rect x="72" y="292" width="756" height="70" rx="24" fill="rgba(5,18,46,0.72)"/>
    <text x="98" y="337" font-size="32" font-weight="900" fill="#FFFFFF">AI MARKET BRIEF</text>
    
    <text x="105" y="390" font-size="29" font-weight="900" fill="#FFFFFF">2026-06-01: watchlist average regular move -1.13%;</text>
<text x="105" y="428" font-size="29" font-weight="900" fill="#FFFFFF">strongest regular mover MU +5.14%.</text>
    <text x="105" y="465" font-size="22" font-weight="650" fill="#DDFBFF">• Top regular movers: MU +5.14%, AVGO +4.73%, SNDK +3.25%, DRAM +1.01%, ASML +0.44%.</text>
<text x="105" y="499" font-size="22" font-weight="650" fill="#DDFBFF">• Weakest regular movers: ASTS -14.79%, EOSE -6.23%, INTC -5.14%, RKLB -3.07%, GOOG -2.51%.</text>
<text x="105" y="533" font-size="22" font-weight="650" fill="#DDFBFF">• Top extended-hours movers: NVDA +0.63%, INTC +0.56%, EOSE +0.12%, JEPQ +0.11%, GOOG +0.11%.</text>
<text x="105" y="567" font-size="22" font-weight="650" fill="#DDFBFF">• Average extended move is -0.19%.</text>

    
    <rect x="860" y="290" width="510" height="300" rx="26" fill="url(#panelGrad)" stroke="#9BFF6A" stroke-width="4"/>
    <rect x="862" y="292" width="506" height="70" rx="24" fill="rgba(5,18,46,0.72)"/>
    <text x="888" y="337" font-size="32" font-weight="900" fill="#FFFFFF">TOP MOVERS</text>
    
    <text x="895" y="392" font-size="26" font-weight="900" fill="#FFFFFF">Regular session leaders</text>
<text x="895" y="437.2" font-size="20" font-weight="800" fill="#D9F7FF">MU</text>
<rect x="967" y="434.0" width="310" height="4.666666666666667" rx="10" fill="#123B63" opacity="0.75"/>
<rect x="967" y="434.0" width="310.0" height="4.666666666666667" rx="10" fill="#39F59B"/>
<text x="1287" y="437.2" text-anchor="end" font-size="19" font-weight="800" fill="#FFFFFF">+5.14%</text>
<text x="895" y="455.8" font-size="20" font-weight="800" fill="#D9F7FF">AVGO</text>
<rect x="967" y="452.6666666666667" width="310" height="4.666666666666667" rx="10" fill="#123B63" opacity="0.75"/>
<rect x="967" y="452.6666666666667" width="285.3" height="4.666666666666667" rx="10" fill="#39F59B"/>
<text x="1287" y="455.8" text-anchor="end" font-size="19" font-weight="800" fill="#FFFFFF">+4.73%</text>
<text x="895" y="474.5" font-size="20" font-weight="800" fill="#D9F7FF">SNDK</text>
<rect x="967" y="471.3333333333333" width="310" height="4.666666666666667" rx="10" fill="#123B63" opacity="0.75"/>
<rect x="967" y="471.3333333333333" width="196.0" height="4.666666666666667" rx="10" fill="#39F59B"/>
<text x="1287" y="474.5" text-anchor="end" font-size="19" font-weight="800" fill="#FFFFFF">+3.25%</text>
<text x="895" y="493.2" font-size="20" font-weight="800" fill="#D9F7FF">DRAM</text>
<rect x="967" y="490.0" width="310" height="4.666666666666667" rx="10" fill="#123B63" opacity="0.75"/>
<rect x="967" y="490.0" width="60.9" height="4.666666666666667" rx="10" fill="#39F59B"/>
<text x="1287" y="493.2" text-anchor="end" font-size="19" font-weight="800" fill="#FFFFFF">+1.01%</text>
<text x="895" y="511.8" font-size="20" font-weight="800" fill="#D9F7FF">ASML</text>
<rect x="967" y="508.6666666666667" width="310" height="4.666666666666667" rx="10" fill="#123B63" opacity="0.75"/>
<rect x="967" y="508.6666666666667" width="26.5" height="4.666666666666667" rx="10" fill="#39F59B"/>
<text x="1287" y="511.8" text-anchor="end" font-size="19" font-weight="800" fill="#FFFFFF">+0.44%</text>
<text x="895" y="530.5" font-size="20" font-weight="800" fill="#D9F7FF">QQQ</text>
<rect x="967" y="527.3333333333334" width="310" height="4.666666666666667" rx="10" fill="#123B63" opacity="0.75"/>
<rect x="967" y="527.3333333333334" width="22.3" height="4.666666666666667" rx="10" fill="#39F59B"/>
<text x="1287" y="530.5" text-anchor="end" font-size="19" font-weight="800" fill="#FFFFFF">+0.37%</text>

    
    <rect x="70" y="630" width="625" height="210" rx="26" fill="url(#panelGrad)" stroke="#FFCE4D" stroke-width="4"/>
    <rect x="72" y="632" width="621" height="70" rx="24" fill="rgba(5,18,46,0.72)"/>
    <text x="98" y="677" font-size="32" font-weight="900" fill="#FFFFFF">RISKS</text>
    
    <text x="105" y="725" font-size="21" font-weight="650" fill="#FFF4C7">• Extended-hours prices can be thin and may reverse during the next regular session.</text>
<text x="105" y="759" font-size="21" font-weight="650" fill="#FFF4C7">• Some symbols may have stale or missing extended-hours data depending on source coverage.</text>

    
    <rect x="725" y="630" width="645" height="210" rx="26" fill="url(#panelGrad)" stroke="#FF78A6" stroke-width="4"/>
    <rect x="727" y="632" width="641" height="70" rx="24" fill="rgba(5,18,46,0.72)"/>
    <text x="753" y="677" font-size="32" font-weight="900" fill="#FFFFFF">WATCH NEXT</text>
    
    <text x="760" y="725" font-size="21" font-weight="650" fill="#FFE4EF">• Watch whether NVDA can hold gains at the next open.</text>
<text x="760" y="759" font-size="21" font-weight="650" fill="#FFE4EF">• Check news for ASTS before treating the move as purely technical.</text>
  </g>

  <g filter="url(#shadow)">
    <rect x="70" y="198" width="1300" height="58" rx="18" fill="#03172E" opacity="0.72" stroke="#49E0FF" stroke-width="2"/>
    <text x="105" y="236" font-size="24" font-weight="850" fill="#EAFBFF">Weakest: ASTS -14.79%, EOSE -6.23%, INTC -5.14%, RKLB -3.07%, GOOG -2.51%</text>
    <text x="930" y="236" font-size="24" font-weight="850" fill="#EAFBFF">Extended: NVDA +0.63%, INTC +0.56%, EOSE +0.12%</text>
  </g>
</svg>
